<svg width="297" height="57" viewBox="0 0 297 57" fill="none" xmlns="http://www.w3.org/2000/svg">
<g clip-path="url(#clip0_138_186)">
<path d="M99.7554 12.1631H115.695C119.537 12.1631 122.787 12.7625 125.446 13.9614C127.894 14.9905 129.972 16.7371 131.407 18.9711C132.751 21.178 133.439 23.7213 133.392 26.3046C133.422 28.8997 132.707 31.4488 131.331 33.6497C129.797 35.9747 127.603 37.7883 125.031 38.8579C122.213 40.1424 118.72 40.7827 114.551 40.7788H99.7554V12.1631ZM114.387 33.4979C116.976 33.4979 118.965 32.8517 120.355 31.5594C121.059 30.8761 121.61 30.0502 121.969 29.1368C122.329 28.2235 122.489 27.2439 122.439 26.2637C122.482 25.3538 122.34 24.4445 122.021 23.5913C121.702 22.7381 121.212 21.9588 120.582 21.3007C119.337 20.0629 117.462 19.4421 114.959 19.4382H109.973V33.4979H114.387Z" fill="white"/>
<path d="M157.261 40.7322C155.158 40.2052 153.147 39.3648 151.294 38.239V31.4544C152.911 32.6309 154.733 33.4979 156.666 34.0118C158.78 34.6569 160.977 34.9932 163.187 35.0102C163.95 35.0509 164.713 34.9192 165.418 34.6248C165.92 34.3679 166.171 34.041 166.171 33.7023C166.176 33.5131 166.143 33.3248 166.073 33.149C166.002 32.9733 165.897 32.8138 165.762 32.6805C165.296 32.3218 164.749 32.0832 164.168 31.9857L159.264 30.8822C156.453 30.2283 154.459 29.3232 153.279 28.1672C152.687 27.57 152.226 26.8563 151.924 26.0712C151.622 25.2862 151.487 24.4471 151.527 23.6071C151.508 22.0848 152.062 20.6109 153.081 19.4791C154.288 18.202 155.81 17.2656 157.495 16.7641C159.662 16.0828 161.926 15.7574 164.198 15.8007C166.318 15.7808 168.433 16.0279 170.492 16.5364C172.155 16.9304 173.752 17.5637 175.233 18.4164V24.8391C173.844 24.0333 172.351 23.4223 170.795 23.0232C169.11 22.5714 167.373 22.3436 165.628 22.3459C163.067 22.3459 161.786 22.7819 161.786 23.6538C161.782 23.848 161.835 24.0391 161.939 24.2032C162.043 24.3673 162.193 24.4971 162.37 24.5763C163.07 24.8739 163.803 25.0856 164.554 25.2069L168.641 25.9426C171.296 26.4097 173.275 27.2271 174.579 28.3949C175.883 29.5626 176.537 31.2714 176.541 33.5213C176.561 34.7044 176.272 35.8723 175.702 36.9089C175.131 37.9455 174.299 38.8147 173.289 39.4301C171.136 40.8743 168.063 41.5944 164.069 41.5905C161.773 41.594 159.485 41.3056 157.261 40.7322Z" fill="white"/>
<path d="M186.198 39.8739C184.013 38.8699 182.171 37.2455 180.902 35.2029C179.719 33.1998 179.112 30.9082 179.151 28.5818C179.115 26.2568 179.754 23.9713 180.99 22.0015C182.307 19.991 184.182 18.4082 186.385 17.4473C189.063 16.2801 191.965 15.7141 194.886 15.7891C198.973 15.7891 202.366 16.6473 205.063 18.3639V25.8551C204.037 25.1652 202.916 24.6282 201.735 24.2611C200.413 23.8438 199.034 23.6369 197.648 23.648C195.114 23.648 193.131 24.1112 191.698 25.0376C191.054 25.397 190.517 25.9206 190.141 26.555C189.765 27.1894 189.564 27.9121 189.558 28.6494C189.552 29.3868 189.742 30.1127 190.107 30.753C190.473 31.3934 191.002 31.9255 191.64 32.2952C193.029 33.2333 195.046 33.7024 197.689 33.7024C199.053 33.7056 200.41 33.5089 201.717 33.1185C202.91 32.7766 204.055 32.2883 205.127 31.6646V38.9047C201.968 40.7467 198.361 41.6802 194.705 41.6022C191.775 41.6822 188.865 41.091 186.198 39.8739Z" fill="white"/>
<path d="M215.24 39.8739C213.03 38.8649 211.156 37.2439 209.839 35.2029C208.598 33.2045 207.954 30.8931 207.982 28.5409C207.943 26.2165 208.588 23.9319 209.839 21.9723C211.163 19.9831 213.029 18.4148 215.216 17.4531C220.589 15.2731 226.601 15.2731 231.974 17.4531C234.152 18.4075 236.011 19.968 237.328 21.9489C238.57 23.9158 239.209 26.2032 239.167 28.5292C239.196 30.8791 238.558 33.189 237.328 35.1912C236.025 37.2337 234.16 38.8558 231.956 39.8622C229.315 40.9948 226.472 41.5788 223.598 41.5788C220.724 41.5788 217.881 40.9948 215.24 39.8622V39.8739ZM227.659 32.6221C228.164 32.1008 228.557 31.4818 228.814 30.8031C229.071 30.1243 229.187 29.4002 229.154 28.6751C229.189 27.9569 229.074 27.2391 228.817 26.5676C228.559 25.8961 228.165 25.2856 227.659 24.7749C227.11 24.2712 226.465 23.883 225.763 23.6332C225.061 23.3835 224.316 23.2773 223.572 23.321C222.828 23.2819 222.084 23.3902 221.383 23.6397C220.681 23.8893 220.036 24.275 219.485 24.7749C218.98 25.2867 218.587 25.8976 218.331 26.5689C218.075 27.2402 217.961 27.9574 217.996 28.6751C217.963 29.3997 218.078 30.1232 218.334 30.8018C218.59 31.4804 218.981 32.0998 219.485 32.6221C220.031 33.1321 220.674 33.5267 221.377 33.7825C222.079 34.0383 222.825 34.15 223.572 34.111C224.318 34.1545 225.066 34.0448 225.769 33.7888C226.472 33.5327 227.115 33.1357 227.659 32.6221Z" fill="white"/>
<path d="M263.731 17.3013V26.1412C262.51 25.4131 261.104 25.0579 259.684 25.1194C257.507 25.1194 255.825 25.785 254.657 27.1046C253.489 28.4241 252.906 30.4735 252.906 33.2528V40.7731H242.892V16.8634H252.701V24.4538C253.246 21.6745 254.126 19.6251 255.34 18.3056C255.929 17.6567 256.652 17.1432 257.458 16.8005C258.264 16.4578 259.136 16.294 260.011 16.3204C261.319 16.2847 262.61 16.6251 263.731 17.3013Z" fill="white"/>
<path d="M297 11.3457V40.773H286.987V35.4014C286.232 37.3137 284.875 38.9286 283.121 40.0023C281.186 41.1051 278.984 41.6545 276.757 41.5905C274.662 41.6393 272.599 41.0641 270.831 39.9381C269.119 38.8258 267.755 37.2535 266.896 35.4014C265.958 33.357 265.491 31.1283 265.529 28.8795C265.463 26.5479 265.96 24.2347 266.977 22.1357C267.912 20.2132 269.372 18.594 271.187 17.4647C273.053 16.3342 275.2 15.7533 277.382 15.789C282.146 15.789 285.348 17.8598 286.987 22.0014V11.3457H297ZM285.515 32.482C286.026 31.9797 286.426 31.3766 286.69 30.7111C286.955 30.0456 287.077 29.3323 287.051 28.6167C287.073 27.9226 286.947 27.2317 286.682 26.5896C286.418 25.9476 286.02 25.3688 285.515 24.8916C284.37 23.9589 282.938 23.4497 281.46 23.4497C279.983 23.4497 278.551 23.9589 277.405 24.8916C276.902 25.3798 276.507 25.9685 276.247 26.6194C275.986 27.2703 275.866 27.9687 275.893 28.6693C275.867 29.3764 275.99 30.0811 276.254 30.7378C276.517 31.3945 276.916 31.9887 277.423 32.482C277.959 32.9807 278.59 33.3672 279.278 33.6188C279.965 33.8705 280.697 33.9822 281.428 33.9475C282.173 33.9887 282.918 33.8802 283.62 33.6285C284.322 33.3767 284.967 32.9869 285.515 32.482Z" fill="white"/>
<path d="M62.8834 5.08077C58.0061 2.84785 52.8572 1.26373 47.5683 0.368896C46.8446 1.6627 46.1897 2.99384 45.6065 4.35677C39.9727 3.50782 34.2436 3.50782 28.6099 4.35677C28.0263 2.99398 27.3715 1.66285 26.648 0.368896C21.3557 1.27129 16.2035 2.85916 11.3213 5.09245C1.62896 19.4324 -0.998484 33.4163 0.315237 47.2016C5.99131 51.3953 12.3445 54.5847 19.0985 56.6312C20.6193 54.5857 21.9651 52.4158 23.1214 50.1443C20.9251 49.324 18.8052 48.3119 16.7864 47.1198C17.3177 46.7345 17.8373 46.3374 18.3395 45.9521C24.2138 48.7146 30.6254 50.147 37.1169 50.147C43.6085 50.147 50.02 48.7146 55.8944 45.9521C56.4023 46.3666 56.922 46.7637 57.4475 47.1198C55.4247 48.3139 53.301 49.3279 51.1007 50.1501C52.2557 52.4206 53.6015 54.5887 55.1237 56.6312C61.8835 54.5929 68.2415 51.405 73.9186 47.2074C75.46 31.2209 71.2853 17.3655 62.8834 5.08077ZM24.7855 38.7237C21.1246 38.7237 18.1001 35.4014 18.1001 31.3143C18.1001 27.2272 21.0195 23.8757 24.7738 23.8757C28.5281 23.8757 31.5292 27.2272 31.465 31.3143C31.4008 35.4014 28.5164 38.7237 24.7855 38.7237ZM49.4484 38.7237C45.7816 38.7237 42.7688 35.4014 42.7688 31.3143C42.7688 27.2272 45.6882 23.8757 49.4484 23.8757C53.2085 23.8757 56.1863 27.2272 56.1221 31.3143C56.0579 35.4014 53.1793 38.7237 49.4484 38.7237Z" fill="white"/>
<path d="M141.835 19.409C144.592 19.409 146.827 17.4014 146.827 14.9248C146.827 12.4483 144.592 10.4407 141.835 10.4407C139.078 10.4407 136.843 12.4483 136.843 14.9248C136.843 17.4014 139.078 19.409 141.835 19.409Z" fill="white"/>
<path d="M136.837 22.4978C138.418 23.1625 140.117 23.5048 141.832 23.5048C143.547 23.5048 145.246 23.1625 146.827 22.4978V40.9016H136.837V22.4978Z" fill="white"/>
</g>
<defs>
<clipPath id="clip0_138_186">
<rect width="297" height="56.2623" fill="white" transform="translate(0 0.368896)"/>
</clipPath>
</defs>
</svg>
