<svg width="297" height="85" viewBox="0 0 297 85" fill="none" xmlns="http://www.w3.org/2000/svg">
<path d="M15.2857 0.669433C9.20682 3.21395 2.52416 10.4025 0.41356 19.4257C-2.25935 30.8585 8.86389 35.693 9.77622 34.1079C10.85 32.2452 7.78307 31.6154 7.15176 25.6835C6.33584 18.022 9.89765 9.46119 14.3803 5.70495C15.2135 5.00708 15.1739 5.9784 15.1739 7.77505C15.1739 10.9879 14.9964 39.8297 14.9964 45.8491C14.9964 53.9939 14.66 56.566 14.0558 59.1074C13.4436 61.683 12.4594 63.4232 13.2052 64.0936C14.0384 64.8434 17.5959 63.0598 19.6554 60.1854C22.125 56.738 22.9895 52.5979 23.1447 48.1017C23.3321 42.6818 23.3242 34.0815 23.3322 29.176C23.3397 24.6769 23.4079 11.5025 23.2533 3.5825C23.2154 1.63989 17.8278 -0.398188 15.2854 0.66707M231.145 38.7869C230.949 43.0213 230.011 46.331 228.848 48.6655C226.596 53.185 221.923 54.5883 219.939 48.0914C218.858 44.5499 218.807 38.6353 219.584 33.6933C220.376 28.6587 222.585 24.8565 226.244 25.1994C229.853 25.5384 231.542 30.1886 231.145 38.7869ZM170.307 65.0578C170.258 72.0934 169.15 78.2621 166.776 80.0538C163.408 82.5943 158.881 80.6887 159.819 75.5547C160.648 71.0116 164.57 66.372 170.316 60.7031C170.316 60.7031 170.328 61.9959 170.307 65.0578ZM169.387 38.7459C169.181 42.6026 168.181 46.4769 167.09 48.666C164.839 53.1855 160.132 54.5983 158.181 48.0919C156.847 43.6465 157.167 37.8929 157.827 34.2676C158.683 29.564 160.759 25.2004 164.486 25.2004C168.111 25.2004 169.898 29.1763 169.387 38.7459ZM134.143 38.687C133.922 42.7715 133.125 46.186 131.847 48.666C129.533 53.1544 124.956 54.5778 122.937 48.0919C121.482 43.4151 121.978 37.0381 122.583 33.5932C123.481 28.4813 125.731 24.857 129.243 25.2004C132.85 25.5528 134.604 30.1886 134.143 38.687ZM295.656 43.4579C294.775 43.4579 294.372 44.3669 294.039 45.8969C292.885 51.2169 291.671 52.4181 290.106 52.4181C288.357 52.4181 286.786 49.7839 286.382 44.5107C286.064 40.3642 286.115 32.7305 286.521 25.137C286.604 23.5768 286.174 22.0331 281.989 20.5129C280.189 19.859 277.571 18.8962 276.268 22.0421C272.586 30.9298 271.145 37.9859 270.806 40.8524C270.788 41.0007 270.606 41.031 270.574 40.6844C270.358 38.3886 269.876 34.2167 269.816 25.4514C269.804 23.7412 269.442 22.2855 267.554 21.0938C266.329 20.3204 262.61 18.9527 261.271 20.5799C260.11 21.9106 258.767 25.4919 257.37 29.7371C256.236 33.1874 255.445 35.5215 255.445 35.5215C255.445 35.5215 255.46 26.2118 255.474 22.6805C255.48 21.3482 254.566 20.9043 254.291 20.8238C253.05 20.4639 250.607 19.8625 249.57 19.8625C248.29 19.8625 247.976 20.5779 247.976 21.6202C247.976 21.7566 247.774 33.8773 247.774 42.3526C247.774 42.7207 247.774 43.1224 247.778 43.549C247.07 47.4444 244.775 52.7322 242.278 52.7322C239.779 52.7322 238.599 50.5215 238.599 40.4177C238.599 34.5233 238.776 31.9603 238.863 27.6972C238.914 25.2417 239.011 23.356 239.006 22.9281C238.988 21.6159 236.718 20.9545 235.663 20.7101C234.602 20.4636 233.68 20.3681 232.96 20.4091C231.941 20.4666 231.22 21.135 231.22 22.0543C231.22 22.5472 231.226 23.4845 231.226 23.4845C229.914 21.4224 227.803 19.9872 226.399 19.5713C222.617 18.448 218.67 19.4433 215.693 23.609C213.327 26.9188 211.901 30.6676 211.339 36.0535C210.929 39.9911 211.063 43.984 211.792 47.3608C210.911 51.1711 209.275 52.7322 207.483 52.7322C204.882 52.7322 202.997 48.4868 203.216 41.1445C203.36 36.3152 204.326 32.9261 205.383 28.0231C205.833 25.933 205.467 24.8387 204.549 23.7899C203.707 22.8281 201.914 22.3367 199.335 22.9411C197.499 23.372 194.873 23.8354 192.47 24.1914C192.47 24.1914 192.615 23.613 192.734 22.5932C193.359 17.2452 187.548 17.6791 185.694 19.3873C184.587 20.4071 183.833 21.6099 183.547 23.7724C183.094 27.2043 185.893 28.823 185.893 28.823C184.975 33.0266 182.724 38.518 180.4 42.4882C179.155 44.6154 178.202 46.1916 176.973 47.8672C176.969 47.2433 176.965 46.6194 176.963 45.9984C176.935 37.1606 177.053 30.205 177.105 27.698C177.155 25.2425 177.254 23.4069 177.248 22.979C177.234 22.0191 176.674 21.6567 175.508 21.1978C174.477 20.7919 173.258 20.5109 171.994 20.413C170.398 20.2885 169.437 21.1348 169.462 22.1356C169.467 22.3246 169.467 23.4849 169.467 23.4849C168.155 21.4227 166.044 19.9876 164.64 19.5716C160.858 18.4488 156.911 19.4441 153.934 23.6093C151.568 26.9192 150.019 31.5638 149.58 36.0129C149.171 40.1595 149.247 43.6834 149.804 46.6518C149.203 49.6242 147.474 52.7326 145.519 52.7326C143.019 52.7326 141.597 50.5219 141.597 40.418C141.597 34.5237 141.774 31.9607 141.861 27.698C141.911 25.2425 142.009 23.3564 142.003 22.929C141.985 21.6167 139.716 20.9553 138.66 20.7104C137.555 20.4549 136.601 20.361 135.869 20.4149C134.903 20.4869 134.223 21.3523 134.223 21.9977V23.4849C132.911 21.4227 130.801 19.9876 129.396 19.5716C125.614 18.4488 121.689 19.4602 118.69 23.6093C116.735 26.3148 115.152 29.3142 114.337 35.9539C114.101 37.8727 113.997 39.6694 114.011 41.3489C113.231 46.118 109.787 51.6148 106.969 51.6148C105.321 51.6148 103.75 48.417 103.75 41.6018C103.75 32.5236 104.312 19.5981 104.407 18.3524C104.407 18.3524 107.967 18.2919 108.656 18.2839C110.432 18.2644 112.04 18.3064 114.405 18.1854C115.591 18.1249 116.734 13.8677 115.51 13.3409C114.955 13.1024 111.033 12.8934 109.479 12.8604C108.171 12.8308 104.532 12.5615 104.532 12.5615C104.532 12.5615 104.859 3.98217 104.935 3.07587C104.999 2.32051 104.022 1.9316 103.461 1.69562C102.099 1.11924 100.879 0.843282 99.4342 0.545346C97.4376 0.133448 96.5318 0.536347 96.3548 2.22151C96.0884 4.77904 95.9504 12.27 95.9504 12.27C94.4852 12.27 89.4801 11.9836 88.0145 11.9836C86.6527 11.9836 85.183 17.84 87.0656 17.9119C89.2317 17.9959 93.0065 18.0684 95.5089 18.1439C95.5089 18.1439 95.3975 31.2823 95.3975 35.3385C95.3975 35.7701 95.4012 36.1856 95.402 36.5889C94.0247 43.7675 89.1737 47.6452 89.1737 47.6452C90.2155 42.8961 88.0874 39.3298 84.2542 36.3109C82.842 35.1985 80.054 33.0924 76.9346 30.7845C76.9346 30.7845 78.7413 29.0039 80.3435 25.4216C81.4787 22.8841 81.5277 19.9801 78.7413 19.3398C74.1372 18.281 70.3409 21.6623 69.2086 25.2721C68.3313 28.0685 68.7992 30.1436 70.5179 32.2992C70.6434 32.4567 70.7794 32.6176 70.9198 32.7796C69.8805 34.7828 68.4528 37.4798 67.2435 39.5713C63.8872 45.3781 61.3517 49.9712 59.4356 49.9712C57.9039 49.9712 57.9244 45.308 57.9244 40.942C57.9244 37.1781 58.2023 31.5194 58.4243 25.6605C58.4977 23.7229 57.5289 22.6191 55.9048 21.6193C54.918 21.0119 52.8119 19.8177 51.5921 19.8177C49.7664 19.8177 44.499 20.0661 39.522 34.4628C38.8948 36.2774 37.6626 39.5838 37.6626 39.5838L37.7686 22.2712C37.7686 21.8653 37.5524 21.4728 37.0574 21.2044C36.2187 20.749 33.9787 19.8177 31.9869 19.8177C31.0379 19.8177 30.5643 20.2591 30.5643 21.1389L30.3906 48.2246C30.3906 50.2826 30.4443 52.6834 30.6477 53.7335C30.8505 54.7849 31.1789 55.6402 31.5856 56.1491C31.9918 56.657 32.4616 57.0444 33.2363 57.2043C33.9572 57.3527 37.9051 57.8597 38.1103 56.351C38.3562 54.5429 38.3656 52.5873 40.4386 45.2936C43.6659 33.9384 47.8737 28.398 49.8517 26.4304C50.1976 26.0864 50.5925 26.0659 50.5735 26.6288C50.4891 29.1183 50.1921 35.3391 49.9922 40.6241C49.4563 54.7673 52.0292 57.3888 55.7061 57.3888C58.519 57.3888 62.4842 54.5938 66.7349 47.5187C69.3849 43.1097 71.9579 38.7864 73.8065 35.6705C75.0948 36.8631 76.5405 38.1467 77.9852 39.5178C81.3425 42.7043 82.4448 45.7321 81.7134 48.6045C81.1541 50.8004 79.0475 53.0634 75.2982 50.8639C74.2054 50.2222 73.739 49.7264 72.6402 49.0029C72.0499 48.6143 71.1485 48.4981 70.6081 48.9053C69.2044 49.9636 68.4016 51.3099 67.9432 52.9765C67.4972 54.5983 69.1214 55.4556 70.8051 56.2054C72.2548 56.8508 75.3707 57.4356 77.3578 57.5022C85.1003 57.7611 91.3026 53.7639 95.6202 43.453C96.3931 52.3577 99.6824 57.3967 105.397 57.3967C109.218 57.3967 113.049 52.4581 114.724 47.5997C115.205 49.5801 115.917 51.3023 116.836 52.7586C121.24 59.7358 129.782 58.2341 134.074 52.3093C135.4 50.4786 135.602 49.8208 135.602 49.8208C136.228 55.4152 140.733 57.3698 143.313 57.3698C146.202 57.3698 149.185 56.0041 151.275 51.2975C151.52 51.8083 151.788 52.2961 152.08 52.7585C156.483 59.7356 165.026 58.2339 169.317 52.3092C169.52 52.0313 169.695 51.7792 169.849 51.5529L169.975 55.2275C169.975 55.2275 167.527 57.4732 166.024 58.8509C159.41 64.9187 154.381 69.5223 154.011 74.8832C153.536 81.7188 159.08 84.2594 163.274 84.5923C167.729 84.9458 171.543 82.4853 173.887 79.0419C175.949 76.011 177.299 69.4878 177.2 63.045C177.161 60.4651 177.096 57.1847 177.045 53.6684C179.369 50.9689 181.988 47.5571 184.4 43.5634C187.028 39.2111 189.844 33.3664 191.286 28.8177C191.286 28.8177 193.733 28.8388 196.345 28.6678C197.18 28.6133 197.42 28.7837 197.266 29.3961C197.079 30.136 193.966 42.1426 196.807 50.1411C198.752 55.6165 203.136 57.3781 205.735 57.3781C208.777 57.3781 211.687 55.0805 213.247 51.6688C213.435 52.0491 213.631 52.4172 213.846 52.757C218.25 59.7341 226.762 58.2234 231.084 52.3077C232.059 50.973 232.612 49.8191 232.612 49.8191C233.54 55.609 238.042 57.3976 240.621 57.3976C243.308 57.3976 245.857 56.2963 247.926 51.4018C248.012 53.5568 248.148 55.319 248.363 55.8746C248.494 56.2143 249.257 56.6408 249.813 56.8468C252.27 57.7581 254.777 57.3272 255.704 57.1397C256.347 57.0097 256.847 56.4944 256.916 55.1636C257.096 51.6693 256.985 45.7984 258.045 41.4352C259.823 34.1127 261.482 31.2723 262.268 29.8661C262.709 29.0782 263.206 28.9482 263.224 29.7821C263.261 31.4692 263.345 36.4238 264.034 43.0804C264.539 47.9762 265.215 50.8699 265.735 51.7857C267.217 54.4047 269.048 54.5287 270.538 54.5287C271.487 54.5287 273.47 54.2667 273.292 52.6C273.206 51.7877 273.357 46.7672 275.11 39.5531C276.255 34.8421 278.164 30.5853 278.852 29.0292C279.106 28.4553 279.224 28.9077 279.22 28.9958C279.075 32.2402 278.75 42.8521 280.071 48.656C281.863 56.5184 287.046 57.3982 288.852 57.3982C292.708 57.3982 295.861 54.4652 296.924 46.7478C297.18 44.8906 296.801 43.4565 295.665 43.4565" fill="white"/>
</svg>
