<svg width="271" height="77" viewBox="0 0 271 77" fill="none" xmlns="http://www.w3.org/2000/svg">
<g clip-path="url(#clip0_254_202)">
<path d="M0 16.886C0 7.56012 7.50811 0 16.7698 0H59.7005C68.9621 0 76.4703 7.56012 76.4703 16.886V60.114C76.4703 69.4398 68.9621 77 59.7005 77H16.7698C7.50811 77 0 69.4398 0 60.114V16.886Z" fill="#FEDA03"/>
<path fill-rule="evenodd" clip-rule="evenodd" d="M57.6065 32.2343C57.6065 35.928 55.4633 37.7652 53.0548 38.4035C55.9376 39.2734 58.0237 41.6523 58.0237 45.4233V52.3465H47.0234V45.7715C47.0234 43.76 45.8475 42.9478 43.8371 42.9478H30.7888V52.3465H19.7886V24.6536H45.9236C52.4857 24.6536 57.6065 26.0846 57.6065 32.2343ZM30.7937 32.3907H45.6647V32.3919C45.6869 32.3911 45.7093 32.3907 45.7315 32.3907C46.7541 32.3907 47.5832 33.2359 47.5832 34.2786C47.5832 35.3211 46.7541 36.1664 45.7315 36.1664C45.7093 36.1664 45.6869 36.1661 45.6647 36.1654V36.1664H30.7937V32.3907Z" fill="black"/>
<path fill-rule="evenodd" clip-rule="evenodd" d="M228.417 44.3541C228.417 52.4333 223.766 57.9946 215.875 57.9946C212.636 57.9946 209.657 56.6305 208.351 54.5319V57.5748H201.766V20.4307H208.351V34.0712C209.866 32.0776 212.688 30.7135 215.98 30.7135C223.766 30.7135 228.417 36.2748 228.417 44.3541ZM207.932 44.3541C207.932 49.1281 210.702 52.276 214.935 52.276C219.115 52.276 221.885 49.1281 221.885 44.3541C221.885 39.5798 219.115 36.4322 214.935 36.4322C210.702 36.4322 207.932 39.5798 207.932 44.3541Z" fill="black"/>
<path fill-rule="evenodd" clip-rule="evenodd" d="M135.204 57.5748L127.162 41.1539C130.768 39.37 132.91 35.855 132.91 31.7103C132.91 25.0999 128.259 20.8503 121.1 20.8503H103.637L103.69 57.5748H110.796V42.5179H119.898L126.948 57.5748H135.204ZM110.796 26.9886H120.003C123.661 26.9886 125.751 28.7724 125.751 31.7103C125.751 34.6484 123.661 36.3795 120.003 36.3795H110.796V26.9886Z" fill="black"/>
<path fill-rule="evenodd" clip-rule="evenodd" d="M156.495 31.1331H163.079V57.5746H156.495V54.5318C155.188 56.6304 152.262 57.9944 148.97 57.9944C141.079 57.9944 136.428 52.4332 136.428 44.3539C136.428 36.2747 141.079 30.7134 148.865 30.7134C152.157 30.7134 154.979 32.0774 156.495 34.0711V31.1331ZM142.96 44.3539C142.96 49.1279 145.73 52.2758 149.91 52.2758C154.143 52.2758 156.913 49.1279 156.913 44.3539C156.913 39.5796 154.143 36.432 149.91 36.432C145.73 36.432 142.96 39.5796 142.96 44.3539Z" fill="black"/>
<path d="M186.022 31.1331L185.604 37.5337C184.663 37.1139 183.409 36.9042 182.259 36.9042C178.549 36.9042 175.205 39.9994 175.205 47.8689V57.5746H168.621V31.1331H175.205V35.9596C176.511 32.9693 179.96 30.7134 183.148 30.7134C184.088 30.7134 185.238 30.8708 186.022 31.1331Z" fill="black"/>
<path d="M196.247 57.5748H189.663V31.1333H196.247V57.5748Z" fill="black"/>
<path d="M233.218 57.5748H239.803V20.4307H233.218V57.5748Z" fill="black"/>
<path fill-rule="evenodd" clip-rule="evenodd" d="M270.814 43.462C270.814 37.3236 266.477 30.7134 257.594 30.7134C248.867 30.7134 244.582 37.4813 244.582 44.3539C244.582 51.2265 249.233 57.9944 257.96 57.9944C264.126 57.9944 268.724 55.0566 270.188 50.0725L264.021 48.3937C263.342 50.9644 261.147 52.4332 258.064 52.4332C254.302 52.4332 251.741 50.0725 251.166 46.0851H270.71C270.762 45.5606 270.814 44.4063 270.814 43.462ZM251.323 41.2584C252.055 37.6911 254.354 35.7499 257.594 35.7499C261.409 35.7499 263.446 38.1108 263.76 41.2584H251.323Z" fill="black"/>
<path d="M192.014 19.25C190.382 19.25 189.06 20.5547 189.06 22.164V24.1035C189.06 25.7129 190.382 27.0175 192.014 27.0175H193.923C195.555 27.0175 196.877 25.7129 196.877 24.1035V22.164C196.877 20.5547 195.555 19.25 193.923 19.25H192.014Z" fill="black"/>
</g>
<defs>
<clipPath id="clip0_254_202">
<rect width="271" height="77" fill="white"/>
</clipPath>
</defs>
</svg>
